<svg xmlns="http://www.w3.org/2000/svg" width="24" height="24" viewBox="0 0 24 24" fill="none" stroke-width="2" stroke-linecap="round" stroke-linejoin="round" class="lucide lucide-brain-cog-icon lucide-brain-cog">
    <path d="M17.598 6.5A3 3 0 1 0 12 5a3 3 0 0 0-5.63-1.446 3 3 0 0 0-.368 1.571 4 4 0 0 0-2.525 5.771" stroke="#5BCEFA"/> <path d="M17.998 5.125a4 4 0 0 1 2.525 5.771" stroke="#F5A9B8"/> <path d="M19.505 10.294a4 4 0 0 1-1.5 7.706" stroke="#FFFFFF"/> <path d="M4.032 17.483A4 4 0 0 0 11.464 20c.18-.311.892-.311 1.072 0a4 4 0 0 0 7.432-2.516" stroke="#5BCEFA"/> <path d="M4.5 10.291A4 4 0 0 0 6 18" stroke="#F5A9B8"/> <path d="M6.002 5.125a3 3 0 0 0 .4 1.375" stroke="#FFFFFF"/> <path d="m10.852 14.772-.383.923" stroke="#FFD700"/> <path d="m10.852 9.228-.383-.923" stroke="#9333EA"/> <path d="m13.148 14.772.382.924" stroke="#FF007F"/> <path d="m13.531 8.305-.383.923" stroke="#00FF00"/> <path d="m14.772 10.852.923-.383" stroke="#FFA500"/> <path d="m14.772 13.148.923.383" stroke="#00FFFF"/> <path d="m9.228 10.852-.923-.383" stroke="#FF1493"/> <path d="m9.228 13.148-.923.383" stroke="#7CFC00"/> <circle cx="12" cy="12" r="3" stroke="#800080" fill="#800080"/> </svg>